<?xml version="1.0" standalone="no"?>
<!DOCTYPE svg PUBLIC "-//W3C//DTD SVG 20010904//EN"
 "http://www.w3.org/TR/2001/REC-SVG-20010904/DTD/svg10.dtd">
<svg version="1.0" xmlns="http://www.w3.org/2000/svg"
 width="512.000000pt" height="512.000000pt" viewBox="0 0 512.000000 512.000000"
 preserveAspectRatio="xMidYMid meet">

<g transform="translate(0.000000,512.000000) scale(0.100000,-0.100000)"
fill="#000000" stroke="none">
<path d="M2645 5106 c-141 -33 -237 -88 -339 -196 -181 -193 -220 -472 -100
-718 42 -85 137 -192 222 -248 81 -54 205 -94 310 -101 112 -7 210 14 322 68
68 32 100 56 166 123 129 131 184 264 184 446 0 53 -7 123 -15 155 -53 206
-217 382 -422 451 -96 32 -238 41 -328 20z m219 -211 c126 -27 233 -111 292
-230 82 -167 44 -370 -93 -495 -215 -197 -541 -134 -671 129 -36 72 -37 79
-37 181 0 102 1 109 37 181 60 121 166 207 290 234 82 17 99 18 182 0z"/>
<path d="M2793 3620 c-220 -31 -413 -126 -563 -279 -42 -42 -117 -137 -168
-214 -60 -88 -108 -149 -135 -168 -23 -17 -194 -107 -380 -200 -369 -185 -397
-205 -446 -308 -22 -47 -26 -70 -26 -146 0 -76 4 -99 26 -145 29 -62 102 -141
148 -160 l31 -12 0 -953 0 -952 23 -34 c28 -42 80 -58 126 -40 65 27 61 -35
63 1008 l3 947 180 26 c99 15 203 34 232 44 84 28 154 81 405 305 131 116 240
211 243 211 3 0 5 -555 5 -1234 l0 -1233 23 -34 c39 -58 115 -64 163 -12 l24
26 0 1277 0 1277 -23 44 c-35 66 -93 102 -171 107 -46 3 -73 -1 -99 -13 -20
-9 -152 -120 -294 -246 -142 -125 -279 -240 -305 -254 -38 -21 -88 -32 -254
-56 -114 -17 -221 -28 -238 -25 -18 4 -47 21 -65 40 -54 56 -52 137 5 187 11
9 173 94 361 189 401 202 412 210 543 404 109 162 143 202 223 261 87 66 183
112 284 136 75 18 112 20 302 17 204 -3 219 -4 259 -26 131 -70 273 -268 367
-511 92 -237 144 -532 167 -948 21 -389 -15 -540 -194 -806 -106 -158 -169
-303 -204 -467 -21 -102 -32 -522 -14 -574 13 -41 59 -76 98 -76 32 0 79 26
94 53 9 15 15 101 19 282 5 194 10 275 22 317 35 121 79 217 158 338 187 288
239 453 239 754 0 399 -59 821 -157 1120 -125 381 -345 664 -572 737 -56 18
-95 22 -266 25 -110 1 -228 -1 -262 -6z"/>
</g>
</svg>
