<?xml version="1.0" encoding="utf-8"?>
<!-- Generator: Adobe Illustrator 25.0.0, SVG Export Plug-In . SVG Version: 6.00 Build 0)  -->
<svg version="1.1" xmlns="http://www.w3.org/2000/svg" xmlns:xlink="http://www.w3.org/1999/xlink" x="0px" y="0px"
	 viewBox="0 0 1080 1080" style="enable-background:new 0 0 1080 1080;" xml:space="preserve">
<style type="text/css">
	.st0{fill:#07131F;}
	.st1{fill:#FFFFFF;}
	.st2{fill:#F4D50B;}
</style>
<g id="Capa_1">
</g>
<g id="LOGO_SVG">
	<g>
		<g>
			<path class="st2" d="M468.23,706.28l-1.93-40.6c-4.35,19.33-26.59,40.6-63.8,40.6H261.34c-82.17,0-103.44-24.65-103.44-107.79
				V481.51c0-79.76,21.27-107.79,103.44-107.79h168.7c48.82,0,72.02,30.45,79.27,48.82l-41.09,42.54
				c-6.28-13.05-16.92-25.62-42.54-25.62H261.83c-30.45,0-39.15,9.18-39.15,42.05v107.31c0,45.92,8.22,52.2,39.15,52.2h151.3
				c36.74,0,48.82-11.12,48.82-31.42v-42.54H337.23v-54.14h186.1v193.35H468.23z"/>
			<path class="st2" d="M922.1,610.09c0,70.57-29,96.19-108.28,96.19H578.9c0.97-21.75,2.9-43.5,4.35-65.26h226.22
				c35.29,0,45.44-8.22,45.44-36.74c0-28.04-9.67-36.74-43.99-36.74H676.06c-79.76,0-105.38-28.52-105.38-89.42v-11.12
				c0-66.22,26.59-93.29,107.31-93.29h232.99c-2.42,22.24-5.32,43.99-8.22,66.22H677.99c-31.91,0-41.09,10.15-41.09,36.25
				c0,26.1,9.18,36.74,41.09,36.74h132.93c82.65,0,111.18,27.07,111.18,85.56V610.09z"/>
		</g>
	</g>
</g>
</svg>
