
<svg version="1.0" xmlns="http://www.w3.org/2000/svg"
 width="512.000000pt" height="512.000000pt" viewBox="0 0 512.000000 512.000000"
 preserveAspectRatio="xMidYMid meet">

<g transform="translate(0.000000,512.000000) scale(0.100000,-0.100000)"
fill="#000000" stroke="none">
<path d="M1092 4466 c-157 -30 -281 -81 -417 -171 -158 -105 -282 -249 -371
-430 -78 -161 -114 -326 -114 -525 0 -206 -63 -484 -159 -704 -41 -94 -38
-170 11 -232 28 -35 210 -155 322 -211 l89 -45 -74 -36 c-107 -53 -204 -153
-257 -263 -22 -46 -45 -108 -51 -137 -7 -33 -11 -210 -11 -478 0 -463 0 -466
58 -528 15 -16 45 -37 67 -47 37 -17 74 -19 497 -19 l457 0 20 26 c28 35 26
69 -4 99 l-24 25 -241 0 -240 0 0 394 0 395 -26 20 c-33 26 -65 27 -95 2 l-24
-19 -3 -396 -3 -396 -128 0 c-111 0 -130 2 -144 18 -15 17 -17 61 -17 434 0
390 1 420 20 482 38 123 138 226 268 277 49 20 80 23 227 27 l170 4 18 -69
c44 -173 189 -285 367 -285 176 0 323 113 367 283 l18 71 170 -4 c147 -4 178
-7 227 -27 130 -51 230 -154 268 -277 19 -62 20 -92 20 -484 0 -391 -1 -418
-18 -433 -15 -14 -41 -17 -145 -17 l-126 0 -3 396 -3 396 -24 19 c-30 25 -62
24 -95 -2 l-26 -20 0 -395 0 -394 -240 0 -241 0 -24 -25 c-32 -31 -32 -69 0
-100 l24 -25 451 0 c491 0 492 0 554 58 16 15 37 45 47 67 17 37 19 73 19 470
0 481 -3 505 -68 629 -51 99 -156 203 -252 249 l-73 35 83 42 c190 96 323 191
351 254 26 58 23 104 -12 193 -113 281 -145 424 -159 713 -13 255 -39 370
-122 535 -138 275 -397 484 -697 562 -120 31 -344 40 -459 19z m441 -170 c171
-51 303 -132 429 -264 176 -185 242 -361 258 -692 13 -281 41 -417 137 -673
30 -81 53 -153 50 -161 -9 -23 -174 -126 -307 -192 -162 -81 -315 -134 -386
-134 l-54 0 0 83 0 82 45 28 c72 46 187 176 233 264 82 158 85 177 89 618 4
379 3 391 -17 423 -11 18 -32 37 -46 42 -55 21 -79 13 -166 -60 -77 -65 -203
-140 -234 -140 -10 0 -14 16 -14 60 0 76 -20 117 -67 137 -47 19 -70 12 -156
-46 -88 -59 -114 -73 -197 -101 -57 -19 -93 -23 -282 -27 -328 -8 -313 11
-313 -383 0 -267 2 -290 23 -364 35 -122 94 -226 179 -316 41 -43 94 -91 118
-107 l45 -28 0 -82 0 -83 -54 0 c-110 0 -394 120 -591 251 -58 38 -105 75
-105 83 0 8 20 65 44 128 96 246 146 480 146 688 0 297 81 515 265 709 113
119 250 205 402 251 112 34 158 39 303 35 109 -2 152 -8 223 -29z m-133 -805
c0 -53 35 -102 87 -120 36 -13 48 -13 109 4 80 22 158 61 232 117 l54 40 -4
-329 c-4 -310 -6 -332 -27 -393 -35 -101 -78 -169 -155 -245 -82 -81 -163
-127 -272 -155 -141 -36 -295 -18 -427 52 -85 45 -203 164 -245 248 -59 117
-64 151 -69 426 l-5 251 194 5 c227 6 306 23 433 93 44 24 83 44 88 44 4 1 7
-16 7 -38z m-207 -1243 c83 -12 187 -5 290 18 l27 6 0 -122 c0 -142 -10 -185
-58 -240 -89 -105 -238 -113 -333 -17 -57 56 -63 80 -67 236 l-4 144 29 -7
c15 -3 67 -11 116 -18z"/>
<path d="M3695 4460 c-110 -24 -156 -40 -265 -96 -209 -107 -386 -303 -475
-529 -44 -112 -65 -233 -65 -381 0 -110 -3 -139 -20 -175 -23 -53 -27 -154 -6
-203 20 -47 82 -114 130 -138 22 -11 66 -23 99 -26 32 -3 60 -10 62 -16 1 -6
10 -45 19 -87 34 -154 132 -304 267 -411 l79 -62 0 -78 0 -78 -152 0 c-181 0
-263 -15 -368 -66 -97 -48 -210 -160 -257 -254 -62 -125 -64 -140 -61 -638 l3
-450 30 -43 c17 -23 50 -53 74 -66 l44 -23 1059 0 c1159 0 1097 -3 1162 58 57
53 66 90 66 270 0 160 0 163 -25 187 -13 14 -36 25 -50 25 -14 0 -37 -11 -50
-25 -24 -23 -25 -28 -25 -172 0 -201 7 -193 -161 -193 l-129 0 0 374 c0 235
-4 385 -10 402 -21 55 -68 69 -114 33 l-26 -20 0 -395 0 -394 -630 0 -630 0 0
390 0 391 -25 24 c-31 32 -69 32 -100 0 l-25 -24 0 -391 0 -390 -128 0 c-113
0 -131 2 -146 19 -15 17 -17 56 -14 457 l3 439 32 68 c59 124 177 218 311 246
29 6 118 11 196 11 l144 0 6 -44 c10 -65 60 -158 110 -204 177 -163 446 -134
576 61 36 54 45 77 64 161 l7 28 172 -4 c146 -4 180 -8 228 -27 121 -47 213
-139 261 -261 16 -42 22 -87 27 -188 6 -125 8 -135 30 -153 32 -26 67 -24 96
6 24 23 25 30 25 138 0 241 -84 412 -260 532 -118 80 -189 98 -402 103 l-178
4 0 82 1 81 50 34 c64 44 164 152 208 226 40 65 86 190 96 258 l7 47 42 0
c178 0 312 186 249 345 -11 27 -18 92 -23 200 -5 103 -15 190 -28 245 -89 369
-369 653 -740 752 -115 30 -328 34 -447 8z m420 -155 c84 -23 216 -86 288
-139 205 -147 337 -387 354 -643 l6 -93 -55 0 c-58 0 -68 7 -68 53 0 43 -42
109 -88 138 -70 44 -107 45 -270 5 -289 -71 -487 -71 -774 1 -137 35 -151 36
-195 25 -90 -24 -148 -88 -159 -174 l-7 -48 -53 0 -54 0 0 70 c0 214 97 429
268 592 121 115 261 190 422 224 84 18 302 11 385 -11z m-661 -820 c302 -81
554 -83 865 -4 114 28 124 29 147 15 13 -9 27 -28 30 -41 3 -14 4 -146 1 -293
-3 -206 -8 -280 -21 -326 -88 -316 -409 -506 -720 -426 -113 29 -190 73 -276
160 -87 86 -131 163 -160 276 -18 68 -20 111 -20 351 0 260 1 274 20 293 25
25 24 25 134 -5z m-304 -316 l0 -112 -47 6 c-65 7 -103 49 -103 111 0 36 6 50
31 75 25 25 39 31 75 31 l44 0 0 -111z m1609 85 c79 -66 28 -194 -76 -194
l-33 0 0 110 0 110 39 0 c28 0 49 -8 70 -26z m-1004 -999 c106 -22 200 -19
343 11 l34 7 -4 -139 c-4 -149 -12 -178 -67 -237 -106 -115 -301 -85 -367 56
-21 47 -24 65 -24 185 0 72 3 132 8 132 4 0 39 -7 77 -15z"/>
</g>
</svg>
