<svg version="1.0" xmlns="http://www.w3.org/2000/svg"
 width="512.000000pt" height="512.000000pt" viewBox="0 0 512.000000 512.000000"
 preserveAspectRatio="xMidYMid meet">

<g transform="translate(0.000000,512.000000) scale(0.100000,-0.100000)"
fill="#000000" stroke="none">
<path d="M1002 5100 c-317 -83 -514 -397 -447 -713 17 -83 59 -178 104 -236
19 -25 30 -46 24 -48 -31 -11 -178 -102 -240 -150 -230 -175 -392 -456 -432
-747 -7 -50 -11 -350 -11 -832 0 -737 0 -756 20 -794 29 -56 80 -80 170 -80
42 0 70 -4 70 -10 0 -6 -56 -221 -125 -478 -69 -257 -129 -497 -132 -533 -15
-171 90 -354 248 -430 180 -88 373 -55 514 86 76 75 103 133 151 313 20 78 38
141 39 140 2 -2 21 -70 44 -151 49 -177 76 -234 145 -303 179 -178 454 -178
632 0 96 97 141 215 131 345 -3 40 -66 292 -156 628 l-151 562 2 444 3 444
400 -109 c220 -59 407 -108 417 -108 16 0 17 -28 20 -368 l3 -369 29 -37 c39
-52 79 -66 180 -66 l85 0 3 -698 3 -699 29 -37 c51 -67 52 -67 486 -64 377 3
389 4 417 24 15 12 36 34 45 50 13 22 44 232 118 784 l100 755 92 415 c50 228
93 417 95 420 2 2 49 -41 104 -96 l101 -101 -35 -54 c-53 -83 -69 -140 -75
-265 -4 -98 -2 -115 17 -152 24 -47 80 -82 131 -82 50 0 107 35 130 80 15 30
20 59 20 120 0 60 5 91 19 118 22 43 84 82 130 82 51 0 108 -35 131 -80 20
-38 20 -57 20 -970 0 -913 0 -932 20 -970 23 -45 80 -80 130 -80 50 0 107 35
130 80 20 40 20 51 18 1003 -3 1074 2 996 -74 1114 l-34 53 34 53 c87 136 98
296 29 446 -23 48 -107 137 -605 636 -318 319 -578 583 -578 586 0 3 22 20 50
38 111 72 222 236 249 369 14 68 14 196 0 264 -6 29 -29 91 -51 137 -97 203
-316 341 -543 341 -273 0 -522 -195 -592 -463 -20 -79 -20 -214 1 -294 17 -69
53 -144 99 -212 17 -25 26 -46 21 -48 -43 -14 -193 -111 -267 -173 -177 -148
-313 -358 -368 -570 -12 -47 -25 -89 -29 -93 -6 -7 -769 194 -800 212 -8 4
-74 111 -146 237 l-132 229 66 35 c96 51 191 150 242 252 70 143 86 281 50
422 -84 329 -416 530 -738 446z m274 -309 c112 -50 178 -153 178 -281 0 -92
-26 -158 -87 -218 -63 -61 -126 -87 -217 -87 -91 0 -154 26 -217 87 -62 61
-88 126 -87 223 0 63 5 89 23 125 43 83 122 149 206 171 49 13 148 3 201 -20z
m2450 -1 c58 -28 115 -84 146 -142 19 -36 23 -58 23 -138 0 -108 -17 -152 -84
-219 -193 -193 -524 -54 -524 220 0 60 5 80 34 137 38 75 104 133 179 157 63
21 165 14 226 -15z m436 -1517 c344 -346 633 -642 642 -660 34 -69 5 -158 -64
-193 -49 -25 -90 -25 -138 -1 -20 11 -280 263 -577 561 -297 298 -552 548
-567 556 -78 41 -188 -11 -208 -101 -18 -78 -10 -88 316 -415 197 -198 304
-312 304 -325 -1 -11 -44 -216 -98 -455 l-97 -435 -468 -3 -467 -2 0 305 0
306 55 54 c177 172 179 462 4 637 l-50 50 12 61 c34 194 170 405 334 523 90
63 224 123 324 144 47 10 93 19 101 19 8 1 297 -281 642 -626z m-2909 295
c144 -252 191 -327 216 -341 17 -11 253 -79 523 -153 271 -74 509 -139 528
-145 118 -38 147 -173 56 -258 -55 -52 -74 -48 -721 129 -324 88 -605 166
-624 173 -66 23 -108 74 -189 232 -68 131 -82 152 -117 172 -75 43 -160 20
-203 -53 -36 -62 -26 -105 64 -278 126 -242 216 -321 442 -386 l72 -21 0 -419
0 -420 -500 0 -501 0 3 698 3 697 28 88 c88 282 288 489 557 575 82 26 97 29
142 31 l36 1 185 -322z m-495 -2232 l42 -158 -100 -377 c-55 -207 -109 -395
-120 -418 -22 -47 -78 -83 -130 -83 -52 0 -109 36 -131 83 -10 23 -19 51 -19
62 0 11 61 253 137 538 l138 518 70 -3 70 -3 43 -159z m716 -355 c148 -552
149 -560 107 -620 -24 -33 -77 -61 -117 -61 -51 0 -111 37 -133 83 -17 37
-301 1079 -301 1106 0 7 52 11 153 11 l152 0 139 -519z m2146 508 c0 -17 -150
-1142 -155 -1166 -5 -23 -6 -23 -215 -23 l-210 0 0 600 0 600 290 0 c197 0
290 -3 290 -11z"/>
</g>
</svg>
